<svg width="48" height="48" viewBox="0 0 48 48" fill="none" xmlns="http://www.w3.org/2000/svg">
<circle cx="24" cy="24" r="24" fill="black"/>
<path d="M20.0319 30.0665C20.203 30.1826 20.4054 30.2187 20.594 30.1826C20.7825 30.1466 20.9565 30.0384 21.0734 29.8672L28.2756 19.1697C28.5079 18.8275 28.4185 18.3607 28.0763 18.1285C27.7341 17.8962 27.2679 17.9855 27.0348 18.3277L19.8327 29.0253C19.5997 29.3676 19.6889 29.8337 20.0319 30.0665ZM23.8802 27.705C24.3293 28.7313 24.2678 29.8346 23.5973 30.8231L21.1739 34.2745C20.6674 35.0195 19.9011 35.5234 19.0158 35.6928C18.1304 35.8622 17.2322 35.6768 16.4865 35.1715C14.9473 34.1264 14.545 32.0241 15.5838 30.4941L17.9167 26.9409C18.4232 26.196 19.1894 25.6913 20.0747 25.5219C20.3774 25.464 20.6794 25.4619 20.9786 25.4856L21.9084 24.1161C21.2095 23.9392 20.4873 23.9156 19.7927 24.0485C18.5679 24.2829 17.4317 24.985 16.6759 26.0983L14.3491 29.6434C12.8374 31.87 13.4173 34.9008 15.6444 36.4127C16.7581 37.169 18.073 37.4014 19.2979 37.167C20.5227 36.9326 21.659 36.2312 22.4147 35.1172L24.8329 31.6744C25.9896 29.9707 25.9169 27.9191 24.8251 26.3151L23.8802 27.705ZM32.4378 11.6705C31.3236 10.915 30.0093 10.6818 28.7844 10.9162C27.5588 11.1507 26.4227 11.8528 25.6675 12.966L23.2503 16.4093C22.052 18.1752 22.1723 20.4437 23.3822 22.0624L24.3066 20.7009C23.7524 19.636 23.7683 18.3147 24.485 17.26L26.9084 13.8086C27.4156 13.0635 28.181 12.5591 29.0671 12.3895C29.9517 12.2202 30.8508 12.4062 31.5958 12.9117C33.1349 13.9568 33.5374 16.0598 32.4984 17.5891L30.0927 21.1325C29.5871 21.8781 28.8199 22.3814 27.9353 22.5506C27.7099 22.5938 27.5154 22.6547 27.2904 22.6519L26.3417 24.0502C26.9746 24.1817 27.5912 24.1439 28.2173 24.0241C29.4421 23.7897 30.5777 23.0885 31.3341 21.9743L33.7339 18.4397C35.2457 16.2131 34.6658 13.183 32.4387 11.671L32.4378 11.6705Z" fill="white"/>
</svg>
